# xmcd
#
# Track frame offsets:
#	150
#	11440
#	19673
#	34460
#	47302
#	58887
#	70703
#	83524
#	93946
#	104963
#	119643
#	133123
#	145535
#	158409
#	172025
#	184772
#	197651
#	210435
#	223604
#	236160
#	247115
#	261270
#	271317
#	282018
#	302609
#
# Disc length: 4210 seconds
#
# Revision: 1
# Processed by: cddbd v1.5.2PL0 Copyright (c) Steve Scherf et al.
# Submitted via: audiograbber 1.83.01
#
DISCID=66107019
DTITLE=Various Artist - Chess Originals
DYEAR=2005
DGENRE=R&B
TTITLE0=Bo Diddley - Who Do You Love?
TTITLE1=Chuck Berry - Come On
TTITLE2=Muddy Waters - Baby Please Don't Go
TTITLE3=Howlin' Wolf - Killing Floor
TTITLE4=Sonny Boy Williamson - Don't Start Me Talkin'
TTITLE5=Little Walter - My Babe
TTITLE6=Tommy Tucker - Hi-Heel Sneakers
TTITLE7=Dale Hawkins - Susie Q
TTITLE8=Chuck Berry - Rock And Roll Music
TTITLE9=Bo Diddley - You Can't Judge A Book By Its Cover
TTITLE10=Muddy Waters - Rollin' and Tumblin'
TTITLE11=Howlin' Wolf - Spoonful
TTITLE12=Muddy Waters - I Just Want To Make Love To You
TTITLE13=Bo Diddley - I'm A Man
TTITLE14=Howlin' Wolf - Back Door Man
TTITLE15=Muddy Waters - I Got My Mojo Working
TTITLE16=Bo Diddley - Pills
TTITLE17=Chuck Berry - Too Much Monkey Business
TTITLE18=Bo Diddley - Roadrunner
TTITLE19=Howlin' Wolf - The Red Rooster
TTITLE20=Sonny Boy Williamson - Help Me
TTITLE21=Chuck Berry - Memphis
TTITLE22=Etta James - Tell Mama
TTITLE23=Bo Diddley - I Can Tell
TTITLE24=Eddie Fontaine - Nothin' Shakin' (But The Leaves On The Trees)
EXTD=a number of entries corrected
EXTT0=
EXTT1=
EXTT2=
EXTT3=
EXTT4=
EXTT5=
EXTT6=
EXTT7=
EXTT8=
EXTT9=
EXTT10=
EXTT11=
EXTT12=
EXTT13=
EXTT14=
EXTT15=
EXTT16=
EXTT17=
EXTT18=
EXTT19=
EXTT20=
EXTT21=
EXTT22=
EXTT23=
EXTT24=
PLAYORDER=
